<svg width="0" height="0">
    <defs>
      <clipPath id="octagon-1">
        <path d="m65.228 64.968c-0.04362 14.66-0.08724 29.319-0.13086 43.979 11.391 5.196 22.783 10.392 34.174 15.588l72.646-27.133c4.8965-10.82 9.793-21.639 14.689-32.459-40.46 0.0085-80.919 0.01693-121.38 0.02539z" />
      </clipPath>
      <clipPath id="octagon-2">
        <path d="m64.873 234.98c14.76 0.007 29.521 0.0143 44.281 0.0215l15.59-34.176c-9.0443-24.217-18.089-48.434-27.133-72.65-10.841-4.9447-21.682-9.8893-32.523-14.834-0.07161 40.546-0.14323 81.092-0.21484 121.64z" />
      </clipPath>
      <clipPath id="octagon-3">
        <path d="m128.38 202.47l-14.832 32.518c40.525 0.0228 81.049 0.0456 121.57 0.0684-0.0228-14.693-0.0456-29.385-0.0684-44.078-11.342-5.2136-22.684-10.427-34.025-15.641-24.216 9.0443-48.432 18.089-72.648 27.133z" />
      </clipPath>
      <clipPath id="octagon-4">
        <path d="m175.56 99.058c9.0449 24.219 18.09 48.439 27.135 72.658l32.361 14.877c0.0228-40.524 0.0456-81.048 0.0684-121.57-14.71-0.02539-29.419-0.05078-44.129-0.07617-5.1452 11.371-10.29 22.742-15.436 34.113z" />
      </clipPath>
      <clipPath id="octagon-5">
        <path d="m101.77 127.87l26.316 70.461c23.486-8.7721 46.973-17.544 70.459-26.316-8.7721-23.486-17.544-46.973-26.316-70.459-23.486 8.7715-46.973 17.543-70.459 26.314z" />
      </clipPath>
    </defs>
  </svg>